<?xml version="1.0" encoding="UTF-8" standalone="no"?>
<svg xmlns="http://www.w3.org/2000/svg" contentScriptType="application/ecmascript" contentStyleType="text/css"
     height="390px" preserveAspectRatio="none" style="width:556px;height:390px;" version="1.1" viewBox="0 0 556 390"
     width="556px" zoomAndPan="magnify"><defs><filter height="300%" id="f17wcamagul95w" width="300%" x="-1" y="-1"><feGaussianBlur result="blurOut" stdDeviation="2.0"/><feColorMatrix in="blurOut" result="blurOut2" type="matrix" values="0 0 0 0 0 0 0 0 0 0 0 0 0 0 0 0 0 0 .4 0"/><feOffset dx="4.0" dy="4.0" in="blurOut2" result="blurOut3"/><feBlend in="SourceGraphic" in2="blurOut3" mode="normal"/></filter></defs><g><!--MD5=[9c750bf3661f1b0dae68bef6e9c8aa44]
cluster system: Thesis--><polygon fill="#FFFFFF" filter="url(#f17wcamagul95w)" points="22,24,151,24,158,46.2969,534,46.2969,534,378,22,378,22,24" style="stroke: #000000; stroke-width: 1.5;"/><line style="stroke: #000000; stroke-width: 1.5;" x1="22" x2="158" y1="46.2969" y2="46.2969"/><text fill="#000000" font-family="sans-serif" font-size="14" font-weight="bold" lengthAdjust="spacingAndGlyphs" textLength="123" x="26" y="38.9951">system: Thesis</text><!--MD5=[04f418592a66e4bbbe5793cf7dace520]
cluster subsystem: default_subsystem--><polygon fill="#FFFFFF" filter="url(#f17wcamagul95w)" points="46,67,305,67,312,89.2969,510,89.2969,510,354,46,354,46,67" style="stroke: #000000; stroke-width: 1.5;"/><line style="stroke: #000000; stroke-width: 1.5;" x1="46" x2="312" y1="89.2969" y2="89.2969"/><text fill="#000000" font-family="sans-serif" font-size="14" font-weight="bold" lengthAdjust="spacingAndGlyphs" textLength="253" x="50" y="81.9951">subsystem: default_subsystem</text><!--MD5=[f06605bceeca57fc87938ab9949f7b4e]
cluster service: software-architecture-transition-project--><polygon fill="#FFFFFF" filter="url(#f17wcamagul95w)" points="70,110,476,110,483,132.2969,486,132.2969,486,330,70,330,70,110" style="stroke: #000000; stroke-width: 1.5;"/><line style="stroke: #000000; stroke-width: 1.5;" x1="70" x2="483" y1="132.2969" y2="132.2969"/><text fill="#000000" font-family="sans-serif" font-size="14" font-weight="bold" lengthAdjust="spacingAndGlyphs" textLength="400" x="74" y="124.9951">service: software-architecture-transition-project</text><!--MD5=[88a598152e1a9c8cacb8f0ff62d916ae]
entity "businesslogic"--><rect fill="#FEFECE" filter="url(#f17wcamagul95w)" height="46.2969" style="stroke: #A80036; stroke-width: 1.5;" width="135" x="210.5" y="268"/><rect fill="#FEFECE" height="10" style="stroke: #A80036; stroke-width: 1.5;" width="15" x="325.5" y="273"/><rect fill="#FEFECE" height="2" style="stroke: #A80036; stroke-width: 1.5;" width="4" x="323.5" y="275"/><rect fill="#FEFECE" height="2" style="stroke: #A80036; stroke-width: 1.5;" width="4" x="323.5" y="279"/><text fill="#000000" font-family="sans-serif" font-size="14" lengthAdjust="spacingAndGlyphs" textLength="95" x="225.5" y="300.9951">businesslogic</text><!--MD5=[dd75d8508860cf9c5fc61ef8ee751e0a]
entity "application"--><rect fill="#FEFECE" filter="url(#f17wcamagul95w)" height="46.2969" style="stroke: #A80036; stroke-width: 1.5;" width="121" x="217.5" y="145"/><rect fill="#FEFECE" height="10" style="stroke: #A80036; stroke-width: 1.5;" width="15" x="318.5" y="150"/><rect fill="#FEFECE" height="2" style="stroke: #A80036; stroke-width: 1.5;" width="4" x="316.5" y="152"/><rect fill="#FEFECE" height="2" style="stroke: #A80036; stroke-width: 1.5;" width="4" x="316.5" y="156"/><text fill="#000000" font-family="sans-serif" font-size="14" lengthAdjust="spacingAndGlyphs" textLength="81" x="232.5" y="177.9951">application</text><!--MD5=[659ae2bea6a715a4dcf94fd3f452f455]
link "application" to "businesslogic"--><path d="M278,191.193 C278,211.405 278,241.307 278,262.919 " fill="none" id="&quot;application&quot;-&gt;&quot;businesslogic&quot;" style="stroke: #A80036; stroke-width: 1.0; stroke-dasharray: 7.0,7.0;"/><polygon fill="#A80036" points="278,267.947,282,258.947,278,262.947,274,258.947,278,267.947" style="stroke: #A80036; stroke-width: 1.0;"/><text fill="#000000" font-family="sans-serif" font-size="13" lengthAdjust="spacingAndGlyphs" textLength="39" x="279" y="234.0669">«use»</text><!--MD5=[13469d7bf9bc29ca79f5b6ce35900f13]
@startuml
skinparam componentStyle uml2

package "system: Thesis" { 
package "subsystem: default_subsystem" { 
package "service: software-architecture-transition-project" { 
["businesslogic"]
["application"]
}

}

}

["application"] ..> ["businesslogic"] : <<use>>
@enduml

PlantUML version 1.2020.09(Sun May 10 10:51:06 UTC 2020)
(GPL source distribution)
Java Runtime: Java(TM) SE Runtime Environment
JVM: Java HotSpot(TM) 64-Bit Server VM
Java Version: 14.0.1+7
Operating System: Linux
Default Encoding: UTF-8
Language: en
Country: US
--></g></svg>